<svg xmlns="http://www.w3.org/2000/svg" version="1.1" xmlns:xlink="http://www.w3.org/1999/xlink" width="1398.0497" height="548.58466"><svg xmlns="http://www.w3.org/2000/svg" version="1.1" xmlns:xlink="http://www.w3.org/1999/xlink" width="1398.0497" height="548.58466"><svg width="1398.0497" height="548.58466" viewBox="0 0 369.90043 145.14636" version="1.1" id="svg1" xml:space="preserve" inkscape:version="1.3.2 (091e20e, 2023-11-25, custom)" sodipodi:docname="J2O_Logo_Project.svg" xmlns:inkscape="http://www.inkscape.org/namespaces/inkscape" xmlns:sodipodi="http://sodipodi.sourceforge.net/DTD/sodipodi-0.dtd" xmlns:xlink="http://www.w3.org/1999/xlink" xmlns="http://www.w3.org/2000/svg" xmlns:svg="http://www.w3.org/2000/svg" xmlns:rdf="http://www.w3.org/1999/02/22-rdf-syntax-ns#" xmlns:cc="http://creativecommons.org/ns#" xmlns:dc="http://purl.org/dc/elements/1.1/"><title id="title55">J2O_Logo</title><sodipodi:namedview id="namedview1" pagecolor="#ffffff" bordercolor="#000000" borderopacity="0.25" inkscape:showpageshadow="2" inkscape:pageopacity="0.0" inkscape:pagecheckerboard="0" inkscape:deskcolor="#d1d1d1" inkscape:document-units="mm" showguides="false" inkscape:zoom="0.70710678" inkscape:cx="711.34942" inkscape:cy="842.87128" inkscape:window-width="3840" inkscape:window-height="2054" inkscape:window-x="1609" inkscape:window-y="-11" inkscape:window-maximized="1" inkscape:current-layer="layer1"></sodipodi:namedview><defs id="defs1"><linearGradient id="linearGradient55" inkscape:collect="always"><stop style="stop-color:#df283f;stop-opacity:1;" offset="0" id="stop52"></stop><stop style="stop-color:#df283f;stop-opacity:1;" offset="1" id="stop55"></stop></linearGradient><linearGradient id="linearGradient51" inkscape:collect="always"><stop style="stop-color:#df283f;stop-opacity:1;" offset="0" id="stop50"></stop><stop style="stop-color:#65a4e3;stop-opacity:1;" offset="1" id="stop51"></stop></linearGradient><linearGradient id="linearGradient49" inkscape:collect="always"><stop style="stop-color:#df283f;stop-opacity:1;" offset="0" id="stop48"></stop><stop style="stop-color:#df283f;stop-opacity:1;" offset="1" id="stop49"></stop></linearGradient><linearGradient id="linearGradient44" inkscape:collect="always"><stop style="stop-color:#87baed;stop-opacity:1;" offset="0.39297125" id="stop44"></stop><stop style="stop-color:#df283f;stop-opacity:1;" offset="1" id="stop45"></stop></linearGradient><linearGradient id="swatch40" inkscape:swatch="solid"><stop style="stop-color:#000000;stop-opacity:1;" offset="0" id="stop40"></stop></linearGradient><linearGradient id="linearGradient19" inkscape:collect="always"><stop style="stop-color:#8ebfef;stop-opacity:1;" offset="0" id="stop18"></stop><stop style="stop-color:#65a4e3;stop-opacity:1;" offset="1" id="stop19"></stop></linearGradient><linearGradient inkscape:collect="always" xlink:href="#linearGradient19" id="linearGradient3" x1="80.168938" y1="128.27585" x2="99.771591" y2="157.93965" gradientUnits="userSpaceOnUse"></linearGradient><linearGradient inkscape:collect="always" xlink:href="#linearGradient19" id="linearGradient4" x1="63.216442" y1="86.209267" x2="168.15477" y2="179.85306" gradientUnits="userSpaceOnUse"></linearGradient><linearGradient inkscape:collect="always" xlink:href="#linearGradient19" id="linearGradient25" gradientUnits="userSpaceOnUse" gradientTransform="matrix(0.39187364,0,0,0.39572412,-31.117269,-34.734339)" x1="80.682281" y1="88.503838" x2="185.62061" y2="182.14763"></linearGradient><linearGradient inkscape:collect="always" xlink:href="#linearGradient19" id="linearGradient26" gradientUnits="userSpaceOnUse" x1="63.216442" y1="86.209267" x2="168.15477" y2="179.85306"></linearGradient><linearGradient inkscape:collect="always" xlink:href="#linearGradient19" id="linearGradient27" gradientUnits="userSpaceOnUse" x1="63.216442" y1="86.209267" x2="168.15477" y2="179.85306"></linearGradient><linearGradient inkscape:collect="always" xlink:href="#linearGradient19" id="linearGradient37" gradientUnits="userSpaceOnUse" x1="80.168938" y1="128.27585" x2="99.771591" y2="157.93965"></linearGradient><linearGradient inkscape:collect="always" xlink:href="#linearGradient19" id="linearGradient38" gradientUnits="userSpaceOnUse" x1="80.168938" y1="128.27585" x2="99.771591" y2="157.93965"></linearGradient><linearGradient inkscape:collect="always" xlink:href="#linearGradient19" id="linearGradient39" gradientUnits="userSpaceOnUse" x1="80.168938" y1="128.27585" x2="99.771591" y2="157.93965"></linearGradient><linearGradient inkscape:collect="always" xlink:href="#linearGradient44" id="linearGradient45" x1="249.24162" y1="28.41378" x2="281.61691" y2="28.41378" gradientUnits="userSpaceOnUse" gradientTransform="matrix(0.53210215,0,0,0.53210214,-111.75813,2.2004437)"></linearGradient><linearGradient inkscape:collect="always" xlink:href="#linearGradient51" id="linearGradient3-5" x1="80.168938" y1="128.27585" x2="99.771591" y2="157.93965" gradientUnits="userSpaceOnUse"></linearGradient><linearGradient inkscape:collect="always" xlink:href="#linearGradient55" id="linearGradient46" gradientUnits="userSpaceOnUse" x1="80.168938" y1="128.27585" x2="99.771591" y2="157.93965"></linearGradient><linearGradient inkscape:collect="always" xlink:href="#linearGradient49" id="linearGradient47" gradientUnits="userSpaceOnUse" x1="80.168938" y1="128.27585" x2="99.771591" y2="157.93965"></linearGradient><linearGradient inkscape:collect="always" xlink:href="#linearGradient19" id="linearGradient48" gradientUnits="userSpaceOnUse" x1="80.168938" y1="128.27585" x2="99.771591" y2="157.93965"></linearGradient></defs><g inkscape:label="Layer 1" inkscape:groupmode="layer" id="layer1" transform="translate(-0.36603559,-59.718491)"><g id="g10" transform="matrix(6.1718821,0,0,4.5722847,38.366294,52.920258)"><g id="g80" transform="translate(-8.8028256,-0.84900348)"><path id="rect2246-0" style="fill:url(#linearGradient25);fill-opacity:1;stroke:none;stroke-width:1.84696;stroke-linecap:round;stroke-miterlimit:4;stroke-dasharray:none;stroke-opacity:1" d="m 2.9160203,2.3358384 h 6.6731182 c 0.1148818,0 0.2073678,0.093394 0.2073678,0.2094037 v 6.7386837 c 0,0.1160105 -0.092486,0.2094054 -0.2073678,0.2094054 H 2.9160203 c -0.1148809,0 -0.2073667,-0.093395 -0.2073667,-0.2094054 V 2.5452421 c 0,-0.1160096 0.092486,-0.2094037 0.2073667,-0.2094037 z"></path><g transform="matrix(0.39187364,0,0,0.3957241,-24.272866,-33.826318)" style="fill:url(#linearGradient4);stroke:none;stroke-width:4.69018;stroke-miterlimit:4;stroke-dasharray:none;stroke-opacity:1" id="g1011"><path id="path1013" d="m 89.041016,99.763672 c -0.365812,-3.37e-4 -0.662446,0.296298 -0.66211,0.662108 -3.38e-4,0.36581 0.296297,0.66245 0.66211,0.66211 h 16.269534 c 0.36581,3.4e-4 0.66245,-0.2963 0.66211,-0.66211 3.4e-4,-0.36581 -0.2963,-0.662445 -0.66211,-0.662108 z m 16.269534,0 c -0.36582,-3.6e-4 -0.66247,0.296288 -0.66211,0.662108 v 52.56836 c 0,2.47956 -0.57175,4.72107 -1.7168,6.76758 -1.14624,2.00824 -2.70134,3.58645 -4.697265,4.76172 h -0.002 l -0.002,0.002 c -1.950847,1.17038 -4.107443,1.75391 -6.517578,1.75391 -2.45051,0 -4.646373,-0.5839 -6.636719,-1.75586 -1.955488,-1.17402 -3.49176,-2.75084 -4.638672,-4.75977 v -0.002 c -1.14505,-2.04651 -1.71875,-4.28802 -1.71875,-6.76758 v -6.79102 c -7.21e-4,-0.36429 -0.295862,-0.65943 -0.660156,-0.66015 -0.365057,-3.6e-4 -0.661387,0.29509 -0.66211,0.66015 v 6.79102 c 0,2.68525 0.628631,5.17167 1.884766,7.41602 l 0.002,0.002 0.002,0.002 c 1.253756,2.19864 2.968282,3.95804 5.115235,5.2461 l 0.002,0.002 h 0.002 c 2.193404,1.29153 4.645629,1.93945 7.308594,1.93945 2.624319,0 5.038888,-0.64785 7.193359,-1.93945 2.186206,-1.28732 3.922456,-3.04675 5.177726,-5.24805 l 0.002,-0.002 v -0.002 c 1.25613,-2.24435 1.88672,-4.73077 1.88672,-7.41602 v -52.56836 c 3.6e-4,-0.36582 -0.29628,-0.662468 -0.66211,-0.662108 z" style="color:#000000;font-style:normal;font-variant:normal;font-weight:normal;font-stretch:normal;font-size:medium;line-height:normal;font-family:sans-serif;font-variant-ligatures:normal;font-variant-position:normal;font-variant-caps:normal;font-variant-numeric:normal;font-variant-alternates:normal;font-variant-east-asian:normal;font-feature-settings:normal;font-variation-settings:normal;text-indent:0;text-align:start;text-decoration:none;text-decoration-line:none;text-decoration-style:solid;text-decoration-color:#000000;letter-spacing:normal;word-spacing:normal;text-transform:none;writing-mode:lr-tb;direction:ltr;text-orientation:mixed;dominant-baseline:auto;baseline-shift:baseline;text-anchor:start;white-space:normal;shape-padding:0;shape-margin:0;inline-size:0;clip-rule:nonzero;display:inline;overflow:visible;visibility:visible;isolation:auto;mix-blend-mode:normal;color-interpolation:sRGB;color-interpolation-filters:linearRGB;solid-color:#000000;solid-opacity:1;vector-effect:none;fill:url(#linearGradient26);fill-opacity:1;fill-rule:nonzero;stroke:none;stroke-width:4.69018;stroke-linecap:round;stroke-linejoin:round;stroke-miterlimit:4;stroke-dasharray:none;stroke-dashoffset:0;stroke-opacity:1;color-rendering:auto;image-rendering:auto;shape-rendering:auto;text-rendering:auto;enable-background:accumulate;stop-color:#000000;stop-opacity:1"></path><path id="path1015" d="m 86.395183,95.763672 c -2.524742,-0.109884 -4.662207,2.134978 -4.66211,4.662108 -1.04e-4,2.52714 2.134973,4.66222 4.66211,4.66211 h 14.253257 v 47.90625 c 0,1.85729 -0.39137,3.34679 -1.199221,4.79688 -0.819036,1.43054 -1.817652,2.44258 -3.240235,3.28125 -0.0017,9.8e-4 -0.0022,0.003 -0.0039,0.004 -0.0111,0.006 -0.02217,0.013 -0.0332,0.0195 -0.0065,0.003 -0.01303,0.007 -0.01953,0.01 -1.332336,0.79514 -2.68349,1.17383 -4.439453,1.17383 -1.808596,0 -3.214092,-0.3892 -4.591797,-1.19727 -1.3796,-0.83152 -2.373016,-1.84511 -3.199219,-3.28711 -0.810275,-1.45299 -1.203125,-2.9439 -1.203125,-4.80078 v -6.79102 -0.008 c -0.005,-2.52046 -2.131877,-4.64738 -4.652344,-4.65234 h -0.0039 c -2.525409,-0.002 -4.661015,2.12694 -4.666016,4.65234 v 0.008 6.79102 c 0,3.30953 0.801249,6.52241 2.394532,9.36914 0.0065,0.0111 0.01297,0.0222 0.01953,0.0332 0.167121,0.29266 0.370556,0.56304 0.605469,0.80469 1.532134,2.37857 3.496583,4.43128 5.925781,5.88867 0.01104,0.007 0.0221,0.0131 0.0332,0.0195 0.315779,0.18554 0.655542,0.32683 1.009766,0.41992 2.572667,1.30564 5.389274,2.07226 8.328125,2.07226 3.276942,0 6.458811,-0.8417 9.234377,-2.50195 2.45726,-1.44968 4.44698,-3.50092 5.99023,-5.88477 0.5215,-0.8441 0.56432,-0.91065 1.02734,-1.82812 1.26757,-2.60533 2.00782,-5.43964 2.00782,-8.39258 v -52.56445 -0.004 c 1.2e-4,-1.263654 -0.53318,-2.429659 -1.38282,-3.279296 -0.42526,-0.425261 -0.93008,-0.770126 -1.48632,-1.009765 -0.55505,-0.239139 -1.16185,-0.373073 -1.79297,-0.373047 H 86.399089 Z m 18.915367,0 1.39843,0.251953 c -0.44615,-0.166305 -0.9184,-0.251627 -1.39453,-0.251953 z m -22.968753,73.326168 -0.767578,-0.59961 c 0.230481,0.23039 0.488251,0.43175 0.767578,0.59961 z" style="color:#000000;font-style:normal;font-variant:normal;font-weight:normal;font-stretch:normal;font-size:medium;line-height:normal;font-family:sans-serif;font-variant-ligatures:normal;font-variant-position:normal;font-variant-caps:normal;font-variant-numeric:normal;font-variant-alternates:normal;font-variant-east-asian:normal;font-feature-settings:normal;font-variation-settings:normal;text-indent:0;text-align:start;text-decoration:none;text-decoration-line:none;text-decoration-style:solid;text-decoration-color:#000000;letter-spacing:normal;word-spacing:normal;text-transform:none;writing-mode:lr-tb;direction:ltr;text-orientation:mixed;dominant-baseline:auto;baseline-shift:baseline;text-anchor:start;white-space:normal;shape-padding:0;shape-margin:0;inline-size:0;clip-rule:nonzero;display:inline;overflow:visible;visibility:visible;isolation:auto;mix-blend-mode:normal;color-interpolation:sRGB;color-interpolation-filters:linearRGB;solid-color:#000000;solid-opacity:1;vector-effect:none;fill:url(#linearGradient27);fill-opacity:1;fill-rule:nonzero;stroke:none;stroke-width:4.69018;stroke-linecap:round;stroke-linejoin:round;stroke-miterlimit:4;stroke-dasharray:none;stroke-dashoffset:0;stroke-opacity:1;color-rendering:auto;image-rendering:auto;shape-rendering:auto;text-rendering:auto;enable-background:accumulate;stop-color:#000000;stop-opacity:1"></path></g><g transform="matrix(2.0978061,0,0,1.2492366,-167.6789,-159.95814)" style="fill:url(#linearGradient3);stroke-width:0.538931" id="g15250-9-9"><g id="g15254-9-3" style="opacity:1;fill:url(#linearGradient39);fill-opacity:1;stroke-width:0.538931"><path style="color:#000000;font-style:normal;font-variant:normal;font-weight:normal;font-stretch:normal;font-size:medium;line-height:normal;font-family:sans-serif;font-variant-ligatures:normal;font-variant-position:normal;font-variant-caps:normal;font-variant-numeric:normal;font-variant-alternates:normal;font-variant-east-asian:normal;font-feature-settings:normal;font-variation-settings:normal;text-indent:0;text-align:start;text-decoration:none;text-decoration-line:none;text-decoration-style:solid;text-decoration-color:#000000;letter-spacing:normal;word-spacing:normal;text-transform:none;writing-mode:lr-tb;direction:ltr;text-orientation:mixed;dominant-baseline:auto;baseline-shift:baseline;text-anchor:start;white-space:normal;shape-padding:0;shape-margin:0;inline-size:0;clip-rule:nonzero;display:inline;overflow:visible;visibility:visible;isolation:auto;mix-blend-mode:normal;color-interpolation:sRGB;color-interpolation-filters:linearRGB;solid-color:#000000;solid-opacity:1;vector-effect:none;fill:url(#linearGradient37);fill-opacity:1;fill-rule:evenodd;stroke:none;stroke-width:0.133681;stroke-linecap:butt;stroke-linejoin:round;stroke-miterlimit:4;stroke-dasharray:none;stroke-dashoffset:0;stroke-opacity:1;color-rendering:auto;image-rendering:auto;shape-rendering:auto;text-rendering:auto;enable-background:accumulate;stop-color:#000000;stop-opacity:1" d="m 81.316592,148.75141 1.594538,-4.33621 1.594537,4.33621 c -0.941414,-0.69274 -2.229432,-0.68875 -3.189075,0 z" id="path15256-0-1"></path><path style="color:#000000;font-style:normal;font-variant:normal;font-weight:normal;font-stretch:normal;font-size:medium;line-height:normal;font-family:sans-serif;font-variant-ligatures:normal;font-variant-position:normal;font-variant-caps:normal;font-variant-numeric:normal;font-variant-alternates:normal;font-variant-east-asian:normal;font-feature-settings:normal;font-variation-settings:normal;text-indent:0;text-align:start;text-decoration:none;text-decoration-line:none;text-decoration-style:solid;text-decoration-color:#000000;letter-spacing:normal;word-spacing:normal;text-transform:none;writing-mode:lr-tb;direction:ltr;text-orientation:mixed;dominant-baseline:auto;baseline-shift:baseline;text-anchor:start;white-space:normal;shape-padding:0;shape-margin:0;inline-size:0;clip-rule:nonzero;display:inline;overflow:visible;visibility:visible;isolation:auto;mix-blend-mode:normal;color-interpolation:sRGB;color-interpolation-filters:linearRGB;solid-color:#000000;solid-opacity:1;vector-effect:none;fill:url(#linearGradient38);fill-opacity:1;fill-rule:evenodd;stroke:none;stroke-width:0.133681;stroke-linecap:butt;stroke-linejoin:round;stroke-miterlimit:4;stroke-dasharray:none;stroke-dashoffset:0;stroke-opacity:1;color-rendering:auto;image-rendering:auto;shape-rendering:auto;text-rendering:auto;enable-background:accumulate;stop-color:#000000;stop-opacity:1" d="m 82.914062,144.29102 a 0.1240364,0.1240364 0 0 0 -0.11914,0.082 l -1.595703,4.33593 a 0.1240364,0.1240364 0 0 0 0.189453,0.14258 c 0.917119,-0.65823 2.145233,-0.6606 3.042969,0 a 0.1240364,0.1240364 0 0 0 0.189453,-0.14258 l -1.59375,-4.33593 a 0.1240364,0.1240364 0 0 0 -0.113282,-0.082 z m -0.0039,0.48242 1.392578,3.78906 c -0.868187,-0.50336 -1.903637,-0.50379 -2.783203,-0.002 z" id="path15258-8-4"></path></g></g><g transform="matrix(0.01957283,2.6361059,-0.9843803,0.01154214,179.54333,-187.90508)" style="fill:url(#linearGradient3-5);stroke-width:0.538931" id="g15250-9-9-9"></g></g></g><g id="g55" transform="matrix(1.1674556,0,0,1,-29.808738,9.1692455)"><g id="g15254-9-3-5" style="opacity:1;fill:url(#linearGradient48);fill-opacity:1;stroke-width:0.538931" transform="matrix(0.10347391,11.089798,-5.204034,0.04855647,971.53738,-750.37336)"><path style="color:#000000;font-style:normal;font-variant:normal;font-weight:normal;font-stretch:normal;font-size:medium;line-height:normal;font-family:sans-serif;font-variant-ligatures:normal;font-variant-position:normal;font-variant-caps:normal;font-variant-numeric:normal;font-variant-alternates:normal;font-variant-east-asian:normal;font-feature-settings:normal;font-variation-settings:normal;text-indent:0;text-align:start;text-decoration:none;text-decoration-line:none;text-decoration-style:solid;text-decoration-color:#000000;letter-spacing:normal;word-spacing:normal;text-transform:none;writing-mode:lr-tb;direction:ltr;text-orientation:mixed;dominant-baseline:auto;baseline-shift:baseline;text-anchor:start;white-space:normal;shape-padding:0;shape-margin:0;inline-size:0;clip-rule:nonzero;display:inline;overflow:visible;visibility:visible;isolation:auto;mix-blend-mode:normal;color-interpolation:sRGB;color-interpolation-filters:linearRGB;solid-color:#000000;solid-opacity:1;vector-effect:none;fill:url(#linearGradient46);fill-opacity:1;fill-rule:evenodd;stroke:none;stroke-width:0.133681;stroke-linecap:butt;stroke-linejoin:round;stroke-miterlimit:4;stroke-dasharray:none;stroke-dashoffset:0;stroke-opacity:1;color-rendering:auto;image-rendering:auto;shape-rendering:auto;text-rendering:auto;enable-background:accumulate;stop-color:#000000;stop-opacity:1" d="m 81.316592,148.75141 1.594538,-4.33621 1.594537,4.33621 c -0.941414,-0.69274 -2.229432,-0.68875 -3.189075,0 z" id="path15256-0-1-8"></path><path style="color:#000000;font-style:normal;font-variant:normal;font-weight:normal;font-stretch:normal;font-size:medium;line-height:normal;font-family:sans-serif;font-variant-ligatures:normal;font-variant-position:normal;font-variant-caps:normal;font-variant-numeric:normal;font-variant-alternates:normal;font-variant-east-asian:normal;font-feature-settings:normal;font-variation-settings:normal;text-indent:0;text-align:start;text-decoration:none;text-decoration-line:none;text-decoration-style:solid;text-decoration-color:#000000;letter-spacing:normal;word-spacing:normal;text-transform:none;writing-mode:lr-tb;direction:ltr;text-orientation:mixed;dominant-baseline:auto;baseline-shift:baseline;text-anchor:start;white-space:normal;shape-padding:0;shape-margin:0;inline-size:0;clip-rule:nonzero;display:inline;overflow:visible;visibility:visible;isolation:auto;mix-blend-mode:normal;color-interpolation:sRGB;color-interpolation-filters:linearRGB;solid-color:#000000;solid-opacity:1;vector-effect:none;fill:url(#linearGradient47);fill-opacity:1;fill-rule:evenodd;stroke:none;stroke-width:0.133681;stroke-linecap:butt;stroke-linejoin:round;stroke-miterlimit:4;stroke-dasharray:none;stroke-dashoffset:0;stroke-opacity:1;color-rendering:auto;image-rendering:auto;shape-rendering:auto;text-rendering:auto;enable-background:accumulate;stop-color:#000000;stop-opacity:1" d="m 82.914062,144.29102 a 0.1240364,0.1240364 0 0 0 -0.11914,0.082 l -1.595703,4.33593 a 0.1240364,0.1240364 0 0 0 0.189453,0.14258 c 0.917119,-0.65823 2.145233,-0.6606 3.042969,0 a 0.1240364,0.1240364 0 0 0 0.189453,-0.14258 l -1.59375,-4.33593 a 0.1240364,0.1240364 0 0 0 -0.113282,-0.082 z m -0.0039,0.48242 1.392578,3.78906 c -0.868187,-0.50336 -1.903637,-0.50379 -2.783203,-0.002 z" id="path15258-8-4-2"></path></g><text xml:space="preserve" style="font-style:normal;font-variant:normal;font-weight:normal;font-stretch:normal;font-size:39.4198px;font-family:'Times New Roman';-inkscape-font-specification:'Times New Roman, ';fill:url(#linearGradient45);stroke-width:0.140786" x="20.01697" y="30.639076" id="text42" transform="matrix(4.7662473,0,0,4.6661798,22.361929,40.121991)"><tspan sodipodi:role="line" id="tspan42" style="font-style:normal;font-variant:normal;font-weight:normal;font-stretch:normal;font-family:Arial;-inkscape-font-specification:Arial;fill:url(#linearGradient45);fill-opacity:1;stroke-width:0.140786" x="20.01697" y="30.639076">2</tspan></text></g><text xml:space="preserve" style="font-style:normal;font-variant:normal;font-weight:normal;font-stretch:normal;font-size:194.737px;font-family:Arial;-inkscape-font-specification:Arial;fill:#df283f;fill-opacity:1;stroke-width:0.695495" x="229.35767" y="201.3922" id="text45" transform="scale(0.99512013,1.0049038)"><tspan sodipodi:role="line" id="tspan45" style="fill:#df283f;fill-opacity:1;stroke-width:0.695495" x="229.35767" y="201.3922">O</tspan></text></g><metadata id="metadata55"><rdf:rdf><cc:work rdf:about=""><dc:title>J2O_Logo</dc:title></cc:work></rdf:rdf></metadata></svg></svg><style>@media (prefers-color-scheme: light) { :root { filter: none; } }
@media (prefers-color-scheme: dark) { :root { filter: none; } }
</style></svg>